STARTFONT 2.1
COMMENT 
COMMENT Ayu 18dots Mincho Version 1.1 (Mar.2,2004).
COMMENT 
COMMENT Many glyphs are based on Kappa 20 dots fonts created by 
COMMENT KANOU Hiroki(kanou@khdd.net).
COMMENT 
COMMENT For more information, see http://x-tt.sourceforge.jp/ayu.html
COMMENT 
COMMENT THIS FONT IS PUBLIC DOMAIN: YOU CAN USE, COPY, MODIFY, EVEN COPYRIGHT
COMMENT AS YOURS AND SELL THIS FONT, BUT YOU CAN'T PROHIBIT ANYONE FROM FREE
COMMENT CIRCULATION OF THIS FONT AND ITS DESCENDANTS INDEPENDENT OF YOUR
COMMENT VARIATIONS AND/OR DERIVATIONS.                                        
COMMENT 
FONT -Ayu-Mincho-Medium-R-Normal--18-170-75-75-C-90-JISX0201.1976-0
SIZE 18 75 75
FONTBOUNDINGBOX 9 18 0 -3
STARTPROPERTIES 19
FONT_ASCENT 15
FONT_DESCENT 3
COPYRIGHT "public domain"
FONTNAME_REGISTRY ""
FOUNDRY "Ayu"
FAMILY_NAME "Mincho"
WEIGHT_NAME "Medium"
SLANT "R"
SETWIDTH_NAME "Normal"
ADD_STYLE_NAME ""
PIXEL_SIZE 18
POINT_SIZE 170
RESOLUTION_X 75
RESOLUTION_Y 75
SPACING "C"
AVERAGE_WIDTH 90
CHARSET_REGISTRY "JISX0201.1976"
CHARSET_ENCODING "0"
DEFAULT_CHAR 32
ENDPROPERTIES
CHARS 159
STARTCHAR space
ENCODING 32
SWIDTH 480 0
DWIDTH 9 0
BBX 9 18 0 -3
BITMAP
0000
0000
0000
0000
0000
0000
0000
0000
0000
0000
0000
0000
0000
0000
0000
0000
0000
0000
ENDCHAR
STARTCHAR !
ENCODING 33
SWIDTH 480 0
DWIDTH 9 0
BBX 9 18 0 -3
BITMAP
0000
1000
1800
1800
1800
1800
1800
1800
1000
1000
1000
1000
0000
0000
1800
1800
0000
0000
ENDCHAR
STARTCHAR "
ENCODING 34
SWIDTH 480 0
DWIDTH 9 0
BBX 9 18 0 -3
BITMAP
0000
3600
3600
1200
2400
0000
0000
0000
0000
0000
0000
0000
0000
0000
0000
0000
0000
0000
ENDCHAR
STARTCHAR #
ENCODING 35
SWIDTH 480 0
DWIDTH 9 0
BBX 9 18 0 -3
BITMAP
0000
1200
1200
1200
7f80
1200
1200
2200
2200
2400
2400
ff00
2400
2400
2400
2400
0000
0000
ENDCHAR
STARTCHAR $
ENCODING 36
SWIDTH 480 0
DWIDTH 9 0
BBX 9 18 0 -3
BITMAP
0800
0800
1c00
2a00
4900
4800
2800
1c00
0a00
0900
6900
4900
2a00
1c00
0800
0800
0000
0000
ENDCHAR
STARTCHAR %
ENCODING 37
SWIDTH 480 0
DWIDTH 9 0
BBX 9 18 0 -3
BITMAP
0000
0100
3100
4a00
4a00
4a00
3400
0400
0800
0800
1000
1600
2900
2900
2900
4600
4000
0000
ENDCHAR
STARTCHAR &
ENCODING 38
SWIDTH 480 0
DWIDTH 9 0
BBX 9 18 0 -3
BITMAP
0000
0000
3800
4400
4400
4400
4800
3000
2380
5100
5100
8a00
8a00
4480
3b00
0000
0000
0000
ENDCHAR
STARTCHAR '
ENCODING 39
SWIDTH 480 0
DWIDTH 9 0
BBX 9 18 0 -3
BITMAP
0000
1800
1800
0800
1000
0000
0000
0000
0000
0000
0000
0000
0000
0000
0000
0000
0000
0000
ENDCHAR
STARTCHAR (
ENCODING 40
SWIDTH 480 0
DWIDTH 9 0
BBX 9 18 0 -3
BITMAP
0200
0400
0800
0800
1000
1000
2000
2000
2000
2000
2000
1000
1000
0800
0800
0400
0200
0000
ENDCHAR
STARTCHAR )
ENCODING 41
SWIDTH 480 0
DWIDTH 9 0
BBX 9 18 0 -3
BITMAP
2000
1000
0800
0800
0400
0400
0200
0200
0200
0200
0200
0400
0400
0800
0800
1000
2000
0000
ENDCHAR
STARTCHAR *
ENCODING 42
SWIDTH 480 0
DWIDTH 9 0
BBX 9 18 0 -3
BITMAP
0000
0000
0000
0000
0800
4900
6b00
1c00
0800
1c00
6b00
4900
0800
0000
0000
0000
0000
0000
ENDCHAR
STARTCHAR +
ENCODING 43
SWIDTH 480 0
DWIDTH 9 0
BBX 9 18 0 -3
BITMAP
0000
0000
0000
0800
0800
0800
0800
0800
7f00
0800
0800
0800
0800
0800
0000
0000
0000
0000
ENDCHAR
STARTCHAR ,
ENCODING 44
SWIDTH 480 0
DWIDTH 9 0
BBX 9 18 0 -3
BITMAP
0000
0000
0000
0000
0000
0000
0000
0000
0000
0000
0000
0000
0000
1800
1800
0800
1000
0000
ENDCHAR
STARTCHAR -
ENCODING 45
SWIDTH 480 0
DWIDTH 9 0
BBX 9 18 0 -3
BITMAP
0000
0000
0000
0000
0000
0000
0000
0000
7f00
0000
0000
0000
0000
0000
0000
0000
0000
0000
ENDCHAR
STARTCHAR .
ENCODING 46
SWIDTH 480 0
DWIDTH 9 0
BBX 9 18 0 -3
BITMAP
0000
0000
0000
0000
0000
0000
0000
0000
0000
0000
0000
0000
0000
1800
1800
0000
0000
0000
ENDCHAR
STARTCHAR /
ENCODING 47
SWIDTH 480 0
DWIDTH 9 0
BBX 9 18 0 -3
BITMAP
0000
0100
0100
0200
0200
0400
0400
0800
0800
1000
1000
2000
2000
4000
4000
8000
8000
0000
ENDCHAR
STARTCHAR 0
ENCODING 48
SWIDTH 480 0
DWIDTH 9 0
BBX 9 18 0 -3
BITMAP
0000
0000
1c00
2200
2200
4100
4100
4100
4100
4100
4100
4100
2200
2200
1c00
0000
0000
0000
ENDCHAR
STARTCHAR 1
ENCODING 49
SWIDTH 480 0
DWIDTH 9 0
BBX 9 18 0 -3
BITMAP
0000
0000
0800
3800
0800
0800
0800
0800
0800
0800
0800
0800
0800
0800
3e00
0000
0000
0000
ENDCHAR
STARTCHAR 2
ENCODING 50
SWIDTH 480 0
DWIDTH 9 0
BBX 9 18 0 -3
BITMAP
0000
0000
1c00
2200
4100
6100
0100
0200
0400
0800
1000
2000
2100
4100
7f00
0000
0000
0000
ENDCHAR
STARTCHAR 3
ENCODING 51
SWIDTH 480 0
DWIDTH 9 0
BBX 9 18 0 -3
BITMAP
0000
0000
1c00
2200
4100
6100
0200
0c00
0200
0100
0100
6100
4100
2200
1c00
0000
0000
0000
ENDCHAR
STARTCHAR 4
ENCODING 52
SWIDTH 480 0
DWIDTH 9 0
BBX 9 18 0 -3
BITMAP
0000
0000
0400
0c00
0c00
1400
1400
2400
2400
4400
4400
ff00
0400
0400
0e00
0000
0000
0000
ENDCHAR
STARTCHAR 5
ENCODING 53
SWIDTH 480 0
DWIDTH 9 0
BBX 9 18 0 -3
BITMAP
0000
0000
7f00
4000
4000
4000
4000
5c00
6200
0100
0100
0100
6100
4200
3c00
0000
0000
0000
ENDCHAR
STARTCHAR 6
ENCODING 54
SWIDTH 480 0
DWIDTH 9 0
BBX 9 18 0 -3
BITMAP
0000
0000
1c00
2200
4100
4000
4000
5c00
6200
4100
4100
4100
4100
2200
1c00
0000
0000
0000
ENDCHAR
STARTCHAR 7
ENCODING 55
SWIDTH 480 0
DWIDTH 9 0
BBX 9 18 0 -3
BITMAP
0000
0000
7f00
4100
4100
0200
0200
0200
0400
0400
0400
0800
0800
0800
0800
0000
0000
0000
ENDCHAR
STARTCHAR 8
ENCODING 56
SWIDTH 480 0
DWIDTH 9 0
BBX 9 18 0 -3
BITMAP
0000
0000
1c00
2200
4100
4100
4100
2200
1c00
2200
4100
4100
4100
2200
1c00
0000
0000
0000
ENDCHAR
STARTCHAR 9
ENCODING 57
SWIDTH 480 0
DWIDTH 9 0
BBX 9 18 0 -3
BITMAP
0000
0000
1c00
2200
4100
4100
4100
4100
2300
1d00
0100
0100
4100
2200
1c00
0000
0000
0000
ENDCHAR
STARTCHAR :
ENCODING 58
SWIDTH 480 0
DWIDTH 9 0
BBX 9 18 0 -3
BITMAP
0000
0000
0000
0000
0000
1800
1800
0000
0000
0000
0000
0000
1800
1800
0000
0000
0000
0000
ENDCHAR
STARTCHAR ;
ENCODING 59
SWIDTH 480 0
DWIDTH 9 0
BBX 9 18 0 -3
BITMAP
0000
0000
0000
0000
0000
1800
1800
0000
0000
0000
0000
0000
1800
1800
0800
1000
0000
0000
ENDCHAR
STARTCHAR <
ENCODING 60
SWIDTH 480 0
DWIDTH 9 0
BBX 9 18 0 -3
BITMAP
0000
0000
0000
0100
0200
0400
0800
1000
2000
4000
2000
1000
0800
0400
0200
0100
0000
0000
ENDCHAR
STARTCHAR =
ENCODING 61
SWIDTH 480 0
DWIDTH 9 0
BBX 9 18 0 -3
BITMAP
0000
0000
0000
0000
0000
0000
7f00
0000
0000
0000
7f00
0000
0000
0000
0000
0000
0000
0000
ENDCHAR
STARTCHAR >
ENCODING 62
SWIDTH 480 0
DWIDTH 9 0
BBX 9 18 0 -3
BITMAP
0000
0000
0000
4000
2000
1000
0800
0400
0200
0100
0200
0400
0800
1000
2000
4000
0000
0000
ENDCHAR
STARTCHAR ?
ENCODING 63
SWIDTH 480 0
DWIDTH 9 0
BBX 9 18 0 -3
BITMAP
0000
0000
3c00
4200
8100
c100
0100
0200
0400
0800
0800
0800
0000
0000
1800
1800
0000
0000
ENDCHAR
STARTCHAR @
ENCODING 64
SWIDTH 480 0
DWIDTH 9 0
BBX 9 18 0 -3
BITMAP
0000
1c00
2200
4200
4500
9d00
a500
a500
a500
a500
a500
9b00
4000
4100
2200
1c00
0000
0000
ENDCHAR
STARTCHAR A
ENCODING 65
SWIDTH 480 0
DWIDTH 9 0
BBX 9 18 0 -3
BITMAP
0000
0000
0800
0800
1400
1400
1400
2200
2200
3e00
2200
4100
4100
4100
e380
0000
0000
0000
ENDCHAR
STARTCHAR B
ENCODING 66
SWIDTH 480 0
DWIDTH 9 0
BBX 9 18 0 -3
BITMAP
0000
0000
fc00
4200
4100
4100
4100
4200
7c00
4200
4100
4100
4100
4200
fc00
0000
0000
0000
ENDCHAR
STARTCHAR C
ENCODING 67
SWIDTH 480 0
DWIDTH 9 0
BBX 9 18 0 -3
BITMAP
0000
0000
1d00
2300
2100
4100
4000
4000
4000
4000
4000
4100
2100
2200
1c00
0000
0000
0000
ENDCHAR
STARTCHAR D
ENCODING 68
SWIDTH 480 0
DWIDTH 9 0
BBX 9 18 0 -3
BITMAP
0000
0000
f800
4400
4200
4200
4100
4100
4100
4100
4100
4200
4200
4400
f800
0000
0000
0000
ENDCHAR
STARTCHAR E
ENCODING 69
SWIDTH 480 0
DWIDTH 9 0
BBX 9 18 0 -3
BITMAP
0000
0000
ff00
4100
4100
4000
4000
4400
7c00
4400
4000
4000
4100
4100
ff00
0000
0000
0000
ENDCHAR
STARTCHAR F
ENCODING 70
SWIDTH 480 0
DWIDTH 9 0
BBX 9 18 0 -3
BITMAP
0000
0000
ff00
4100
4100
4000
4000
4400
7c00
4400
4000
4000
4000
4000
e000
0000
0000
0000
ENDCHAR
STARTCHAR G
ENCODING 71
SWIDTH 480 0
DWIDTH 9 0
BBX 9 18 0 -3
BITMAP
0000
0000
1d00
2300
2100
4100
4000
4000
4700
4100
4100
4100
2100
2300
1d00
0000
0000
0000
ENDCHAR
STARTCHAR H
ENCODING 72
SWIDTH 480 0
DWIDTH 9 0
BBX 9 18 0 -3
BITMAP
0000
0000
e700
4200
4200
4200
4200
4200
7e00
4200
4200
4200
4200
4200
e700
0000
0000
0000
ENDCHAR
STARTCHAR I
ENCODING 73
SWIDTH 480 0
DWIDTH 9 0
BBX 9 18 0 -3
BITMAP
0000
0000
3e00
0800
0800
0800
0800
0800
0800
0800
0800
0800
0800
0800
3e00
0000
0000
0000
ENDCHAR
STARTCHAR J
ENCODING 74
SWIDTH 480 0
DWIDTH 9 0
BBX 9 18 0 -3
BITMAP
0000
0000
0f00
0200
0200
0200
0200
0200
0200
0200
0200
0200
6200
4200
2400
1800
0000
0000
ENDCHAR
STARTCHAR K
ENCODING 75
SWIDTH 480 0
DWIDTH 9 0
BBX 9 18 0 -3
BITMAP
0000
0000
e700
4200
4400
4800
4800
5000
6800
4400
4400
4200
4200
4100
e380
0000
0000
0000
ENDCHAR
STARTCHAR L
ENCODING 76
SWIDTH 480 0
DWIDTH 9 0
BBX 9 18 0 -3
BITMAP
0000
0000
f000
4000
4000
4000
4000
4000
4000
4000
4000
4000
4100
4100
ff00
0000
0000
0000
ENDCHAR
STARTCHAR M
ENCODING 77
SWIDTH 480 0
DWIDTH 9 0
BBX 9 18 0 -3
BITMAP
0000
0000
c180
4100
6300
6300
6300
5500
5500
5500
5500
4900
4900
4900
eb80
0000
0000
0000
ENDCHAR
STARTCHAR N
ENCODING 78
SWIDTH 480 0
DWIDTH 9 0
BBX 9 18 0 -3
BITMAP
0000
0000
c380
6100
6100
5100
5100
4900
4900
4500
4500
4300
4300
4100
e100
0000
0000
0000
ENDCHAR
STARTCHAR O
ENCODING 79
SWIDTH 480 0
DWIDTH 9 0
BBX 9 18 0 -3
BITMAP
0000
0000
1c00
2200
4100
4100
4100
4100
4100
4100
4100
4100
4100
2200
1c00
0000
0000
0000
ENDCHAR
STARTCHAR P
ENCODING 80
SWIDTH 480 0
DWIDTH 9 0
BBX 9 18 0 -3
BITMAP
0000
0000
fc00
4200
4100
4100
4100
4200
7c00
4000
4000
4000
4000
4000
e000
0000
0000
0000
ENDCHAR
STARTCHAR Q
ENCODING 81
SWIDTH 480 0
DWIDTH 9 0
BBX 9 18 0 -3
BITMAP
0000
0000
1c00
2200
4100
4100
4100
4100
4100
4100
4100
5900
6900
2600
1c80
0300
0000
0000
ENDCHAR
STARTCHAR R
ENCODING 82
SWIDTH 480 0
DWIDTH 9 0
BBX 9 18 0 -3
BITMAP
0000
0000
fc00
4200
4100
4100
4100
4200
7c00
4400
4400
4200
4200
4100
e100
0000
0000
0000
ENDCHAR
STARTCHAR S
ENCODING 83
SWIDTH 480 0
DWIDTH 9 0
BBX 9 18 0 -3
BITMAP
0000
0000
1d00
2300
4100
4100
4000
3000
0c00
0200
0100
4100
4100
6200
5c00
0000
0000
0000
ENDCHAR
STARTCHAR T
ENCODING 84
SWIDTH 480 0
DWIDTH 9 0
BBX 9 18 0 -3
BITMAP
0000
0000
7f00
4900
4900
0800
0800
0800
0800
0800
0800
0800
0800
0800
1c00
0000
0000
0000
ENDCHAR
STARTCHAR U
ENCODING 85
SWIDTH 480 0
DWIDTH 9 0
BBX 9 18 0 -3
BITMAP
0000
0000
e380
4100
4100
4100
4100
4100
4100
4100
4100
4100
4100
2200
1c00
0000
0000
0000
ENDCHAR
STARTCHAR V
ENCODING 86
SWIDTH 480 0
DWIDTH 9 0
BBX 9 18 0 -3
BITMAP
0000
0000
e380
4100
4100
4100
2200
2200
2200
1400
1400
1400
0800
0800
0800
0000
0000
0000
ENDCHAR
STARTCHAR W
ENCODING 87
SWIDTH 480 0
DWIDTH 9 0
BBX 9 18 0 -3
BITMAP
0000
0000
eb80
4900
4900
4900
4900
5500
5500
5500
5500
2200
2200
2200
2200
0000
0000
0000
ENDCHAR
STARTCHAR X
ENCODING 88
SWIDTH 480 0
DWIDTH 9 0
BBX 9 18 0 -3
BITMAP
0000
0000
e380
4100
2200
2200
1400
1400
0800
1400
1400
2200
2200
4100
e380
0000
0000
0000
ENDCHAR
STARTCHAR Y
ENCODING 89
SWIDTH 480 0
DWIDTH 9 0
BBX 9 18 0 -3
BITMAP
0000
0000
e380
4100
2200
2200
1400
1400
0800
0800
0800
0800
0800
0800
1c00
0000
0000
0000
ENDCHAR
STARTCHAR Z
ENCODING 90
SWIDTH 480 0
DWIDTH 9 0
BBX 9 18 0 -3
BITMAP
0000
0000
7f00
4200
4200
0400
0400
0800
0800
1000
1000
2000
2100
4100
7f00
0000
0000
0000
ENDCHAR
STARTCHAR [
ENCODING 91
SWIDTH 480 0
DWIDTH 9 0
BBX 9 18 0 -3
BITMAP
0000
1e00
1000
1000
1000
1000
1000
1000
1000
1000
1000
1000
1000
1000
1000
1000
1e00
0000
ENDCHAR
STARTCHAR \
ENCODING 92
SWIDTH 480 0
DWIDTH 9 0
BBX 9 18 0 -3
BITMAP
0000
0000
e380
4100
2200
2200
1400
7f00
1400
0800
7f00
0800
0800
0800
1c00
0000
0000
0000
ENDCHAR
STARTCHAR ]
ENCODING 93
SWIDTH 480 0
DWIDTH 9 0
BBX 9 18 0 -3
BITMAP
0000
3c00
0400
0400
0400
0400
0400
0400
0400
0400
0400
0400
0400
0400
0400
0400
3c00
0000
ENDCHAR
STARTCHAR ^
ENCODING 94
SWIDTH 480 0
DWIDTH 9 0
BBX 9 18 0 -3
BITMAP
0800
1400
2200
0000
0000
0000
0000
0000
0000
0000
0000
0000
0000
0000
0000
0000
0000
0000
ENDCHAR
STARTCHAR _
ENCODING 95
SWIDTH 480 0
DWIDTH 9 0
BBX 9 18 0 -3
BITMAP
0000
0000
0000
0000
0000
0000
0000
0000
0000
0000
0000
0000
0000
0000
0000
0000
ff80
0000
ENDCHAR
STARTCHAR `
ENCODING 96
SWIDTH 480 0
DWIDTH 9 0
BBX 9 18 0 -3
BITMAP
0000
1800
1800
1000
0800
0000
0000
0000
0000
0000
0000
0000
0000
0000
0000
0000
0000
0000
ENDCHAR
STARTCHAR a
ENCODING 97
SWIDTH 480 0
DWIDTH 9 0
BBX 9 18 0 -3
BITMAP
0000
0000
0000
0000
0000
0000
3c00
4200
0200
0e00
3200
4200
4200
4280
3d00
0000
0000
0000
ENDCHAR
STARTCHAR b
ENCODING 98
SWIDTH 480 0
DWIDTH 9 0
BBX 9 18 0 -3
BITMAP
0000
0000
c000
4000
4000
4000
5c00
6200
4100
4100
4100
4100
4100
6200
5c00
0000
0000
0000
ENDCHAR
STARTCHAR c
ENCODING 99
SWIDTH 480 0
DWIDTH 9 0
BBX 9 18 0 -3
BITMAP
0000
0000
0000
0000
0000
0000
1c00
2200
4100
4000
4000
4000
4100
2200
1c00
0000
0000
0000
ENDCHAR
STARTCHAR d
ENCODING 100
SWIDTH 480 0
DWIDTH 9 0
BBX 9 18 0 -3
BITMAP
0000
0000
0300
0100
0100
0100
1d00
2300
4100
4100
4100
4100
4100
2300
1d80
0000
0000
0000
ENDCHAR
STARTCHAR e
ENCODING 101
SWIDTH 480 0
DWIDTH 9 0
BBX 9 18 0 -3
BITMAP
0000
0000
0000
0000
0000
0000
1c00
2200
4100
7f00
4000
4000
4100
2200
1c00
0000
0000
0000
ENDCHAR
STARTCHAR f
ENCODING 102
SWIDTH 480 0
DWIDTH 9 0
BBX 9 18 0 -3
BITMAP
0000
0700
0900
1000
1000
1000
7e00
1000
1000
1000
1000
1000
1000
1000
3800
0000
0000
0000
ENDCHAR
STARTCHAR g
ENCODING 103
SWIDTH 480 0
DWIDTH 9 0
BBX 9 18 0 -3
BITMAP
0000
0000
0000
0000
0000
0100
3e80
4200
4200
4200
4200
3c00
2000
5e00
8100
8100
8100
7e00
ENDCHAR
STARTCHAR h
ENCODING 104
SWIDTH 480 0
DWIDTH 9 0
BBX 9 18 0 -3
BITMAP
0000
0000
6000
2000
2000
2000
2e00
3100
2100
2100
2100
2100
2100
2100
7380
0000
0000
0000
ENDCHAR
STARTCHAR i
ENCODING 105
SWIDTH 480 0
DWIDTH 9 0
BBX 9 18 0 -3
BITMAP
0000
0000
1800
1800
0000
0000
1800
0800
0800
0800
0800
0800
0800
0800
3e00
0000
0000
0000
ENDCHAR
STARTCHAR j
ENCODING 106
SWIDTH 480 0
DWIDTH 9 0
BBX 9 18 0 -3
BITMAP
0000
0000
0600
0600
0000
0000
0600
0200
0200
0200
0200
0200
0200
0200
2200
2200
1c00
0000
ENDCHAR
STARTCHAR k
ENCODING 107
SWIDTH 480 0
DWIDTH 9 0
BBX 9 18 0 -3
BITMAP
0000
0000
c000
4000
4000
4700
4200
4400
4800
5800
6400
4400
4200
4200
e700
0000
0000
0000
ENDCHAR
STARTCHAR l
ENCODING 108
SWIDTH 480 0
DWIDTH 9 0
BBX 9 18 0 -3
BITMAP
0000
0000
1800
0800
0800
0800
0800
0800
0800
0800
0800
0800
0800
0800
3e00
0000
0000
0000
ENDCHAR
STARTCHAR m
ENCODING 109
SWIDTH 480 0
DWIDTH 9 0
BBX 9 18 0 -3
BITMAP
0000
0000
0000
0000
0000
0000
d600
6900
4900
4900
4900
4900
4900
4900
eb80
0000
0000
0000
ENDCHAR
STARTCHAR n
ENCODING 110
SWIDTH 480 0
DWIDTH 9 0
BBX 9 18 0 -3
BITMAP
0000
0000
0000
0000
0000
0000
6e00
3100
2100
2100
2100
2100
2100
2100
7380
0000
0000
0000
ENDCHAR
STARTCHAR o
ENCODING 111
SWIDTH 480 0
DWIDTH 9 0
BBX 9 18 0 -3
BITMAP
0000
0000
0000
0000
0000
0000
1c00
2200
4100
4100
4100
4100
4100
2200
1c00
0000
0000
0000
ENDCHAR
STARTCHAR p
ENCODING 112
SWIDTH 480 0
DWIDTH 9 0
BBX 9 18 0 -3
BITMAP
0000
0000
0000
0000
0000
0000
dc00
6200
4100
4100
4100
4100
4100
6200
5c00
4000
4000
e000
ENDCHAR
STARTCHAR q
ENCODING 113
SWIDTH 480 0
DWIDTH 9 0
BBX 9 18 0 -3
BITMAP
0000
0000
0000
0000
0000
0000
1d80
2300
4100
4100
4100
4100
4100
2300
1d00
0100
0100
0380
ENDCHAR
STARTCHAR r
ENCODING 114
SWIDTH 480 0
DWIDTH 9 0
BBX 9 18 0 -3
BITMAP
0000
0000
0000
0000
0000
0000
6e00
3100
2100
2000
2000
2000
2000
2000
7000
0000
0000
0000
ENDCHAR
STARTCHAR s
ENCODING 115
SWIDTH 480 0
DWIDTH 9 0
BBX 9 18 0 -3
BITMAP
0000
0000
0000
0000
0000
0000
1d00
2300
2100
3000
0e00
0100
4100
6100
5e00
0000
0000
0000
ENDCHAR
STARTCHAR t
ENCODING 116
SWIDTH 480 0
DWIDTH 9 0
BBX 9 18 0 -3
BITMAP
0000
0000
0000
1000
1000
1000
7e00
1000
1000
1000
1000
1000
1100
1100
0e00
0000
0000
0000
ENDCHAR
STARTCHAR u
ENCODING 117
SWIDTH 480 0
DWIDTH 9 0
BBX 9 18 0 -3
BITMAP
0000
0000
0000
0000
0000
0000
c600
4200
4200
4200
4200
4200
4200
4600
3b00
0000
0000
0000
ENDCHAR
STARTCHAR v
ENCODING 118
SWIDTH 480 0
DWIDTH 9 0
BBX 9 18 0 -3
BITMAP
0000
0000
0000
0000
0000
0000
e380
4100
2200
2200
2200
1400
1400
0800
0800
0000
0000
0000
ENDCHAR
STARTCHAR w
ENCODING 119
SWIDTH 480 0
DWIDTH 9 0
BBX 9 18 0 -3
BITMAP
0000
0000
0000
0000
0000
0000
e380
4900
4900
4900
5500
5500
5500
2200
2200
0000
0000
0000
ENDCHAR
STARTCHAR x
ENCODING 120
SWIDTH 480 0
DWIDTH 9 0
BBX 9 18 0 -3
BITMAP
0000
0000
0000
0000
0000
0000
7700
2200
1400
1400
0800
1400
1400
2200
7700
0000
0000
0000
ENDCHAR
STARTCHAR y
ENCODING 121
SWIDTH 480 0
DWIDTH 9 0
BBX 9 18 0 -3
BITMAP
0000
0000
0000
0000
0000
0000
e380
4100
2100
2200
1200
1400
0c00
0800
0800
5000
6000
0000
ENDCHAR
STARTCHAR z
ENCODING 122
SWIDTH 480 0
DWIDTH 9 0
BBX 9 18 0 -3
BITMAP
0000
0000
0000
0000
0000
0000
7f00
4200
0400
0400
0800
1000
1100
2100
7f00
0000
0000
0000
ENDCHAR
STARTCHAR {
ENCODING 123
SWIDTH 480 0
DWIDTH 9 0
BBX 9 18 0 -3
BITMAP
0200
0400
0800
0800
0800
0800
0800
0800
3000
0800
0800
0800
0800
0800
0800
0400
0200
0000
ENDCHAR
STARTCHAR bar
ENCODING 124
SWIDTH 480 0
DWIDTH 9 0
BBX 9 18 0 -3
BITMAP
0800
0800
0800
0800
0800
0800
0800
0800
0800
0800
0800
0800
0800
0800
0800
0800
0800
0800
ENDCHAR
STARTCHAR }
ENCODING 125
SWIDTH 480 0
DWIDTH 9 0
BBX 9 18 0 -3
BITMAP
2000
1000
0800
0800
0800
0800
0800
0800
0600
0800
0800
0800
0800
0800
0800
1000
2000
0000
ENDCHAR
STARTCHAR ~
ENCODING 126
SWIDTH 480 0
DWIDTH 9 0
BBX 9 18 0 -3
BITMAP
0000
3000
4900
0600
0000
0000
0000
0000
0000
0000
0000
0000
0000
0000
0000
0000
0000
0000
ENDCHAR
STARTCHAR C240
ENCODING 160
SWIDTH 480 0
DWIDTH 9 0
BBX 9 18 0 -3
BITMAP
0000
0000
0000
0000
0000
0000
0000
0000
0000
0000
0000
0000
0000
0000
0000
0000
0000
0000
ENDCHAR
STARTCHAR kuten
ENCODING 161
SWIDTH 480 0
DWIDTH 9 0
BBX 9 18 0 -3
BITMAP
0000
0000
0000
0000
0000
0000
0000
0000
0000
0000
0000
0000
3800
4400
4400
4400
3800
0000
ENDCHAR
STARTCHAR KagiOpen
ENCODING 162
SWIDTH 480 0
DWIDTH 9 0
BBX 9 18 0 -3
BITMAP
0000
1f80
1000
1000
1000
1000
1000
1000
1000
1000
1000
1000
1000
1000
0000
0000
0000
0000
ENDCHAR
STARTCHAR KagiClose
ENCODING 163
SWIDTH 480 0
DWIDTH 9 0
BBX 9 18 0 -3
BITMAP
0000
0000
0000
0000
0200
0200
0200
0200
0200
0200
0200
0200
0200
0200
0200
0200
7e00
0000
ENDCHAR
STARTCHAR kuten
ENCODING 164
SWIDTH 480 0
DWIDTH 9 0
BBX 9 18 0 -3
BITMAP
0000
0000
0000
0000
0000
0000
0000
0000
0000
0000
0000
0000
4000
2000
1000
1000
0000
0000
ENDCHAR
STARTCHAR nakaguro
ENCODING 165
SWIDTH 480 0
DWIDTH 9 0
BBX 9 18 0 -3
BITMAP
0000
0000
0000
0000
0000
0000
0000
1800
1800
1800
0000
0000
0000
0000
0000
0000
0000
0000
ENDCHAR
STARTCHAR KanaWO
ENCODING 166
SWIDTH 480 0
DWIDTH 9 0
BBX 9 18 0 -3
BITMAP
0000
0000
0000
4700
3900
0100
0100
4700
3900
0200
0200
0400
0400
0800
0800
1000
2000
0000
ENDCHAR
STARTCHAR KanaSmallA
ENCODING 167
SWIDTH 480 0
DWIDTH 9 0
BBX 9 18 0 -3
BITMAP
0000
0000
0000
0000
0000
0000
0000
4700
3900
0200
0a00
0c00
0800
0800
1000
1000
2000
0000
ENDCHAR
STARTCHAR KanaSmallI
ENCODING 168
SWIDTH 480 0
DWIDTH 9 0
BBX 9 18 0 -3
BITMAP
0000
0000
0000
0000
0000
0400
0400
0800
0800
1000
2800
4800
0800
0800
0800
0800
0800
0000
ENDCHAR
STARTCHAR KanaSmallU
ENCODING 169
SWIDTH 480 0
DWIDTH 9 0
BBX 9 18 0 -3
BITMAP
0000
0000
0000
0000
0000
0800
0800
0f00
3900
2100
2100
2100
0100
0200
0200
0400
0800
0000
ENDCHAR
STARTCHAR KanaSmallE
ENCODING 170
SWIDTH 480 0
DWIDTH 9 0
BBX 9 18 0 -3
BITMAP
0000
0000
0000
0000
0000
0000
0000
3e00
0800
0800
0800
0800
0800
0800
7f00
0000
0000
0000
ENDCHAR
STARTCHAR KanaSmallO
ENCODING 171
SWIDTH 480 0
DWIDTH 9 0
BBX 9 18 0 -3
BITMAP
0000
0000
0000
0000
0000
0400
0400
4700
3c00
0400
0c00
1400
1400
2400
4400
0c00
0400
0000
ENDCHAR
STARTCHAR KanaSmallYA
ENCODING 172
SWIDTH 480 0
DWIDTH 9 0
BBX 9 18 0 -3
BITMAP
0000
0000
0000
0000
0000
0000
2000
2000
2380
1c80
f100
1200
1000
0800
0800
0800
0800
0000
ENDCHAR
STARTCHAR KanaSmallYU
ENCODING 173
SWIDTH 480 0
DWIDTH 9 0
BBX 9 18 0 -3
BITMAP
0000
0000
0000
0000
0000
0000
0000
0e00
3200
0200
0200
0400
0400
4780
3800
0000
0000
0000
ENDCHAR
STARTCHAR KanaSmallYO
ENCODING 174
SWIDTH 480 0
DWIDTH 9 0
BBX 9 18 0 -3
BITMAP
0000
0000
0000
0000
0000
0000
0000
4e00
3200
0200
4e00
3200
0200
0200
4e00
3200
0000
0000
ENDCHAR
STARTCHAR KanaSmallTU
ENCODING 175
SWIDTH 480 0
DWIDTH 9 0
BBX 9 18 0 -3
BITMAP
0000
0000
0000
0000
0000
0000
0000
1100
5100
4900
2a00
2200
0200
0400
0400
0800
1000
0000
ENDCHAR
STARTCHAR Prolonged
ENCODING 176
SWIDTH 480 0
DWIDTH 9 0
BBX 9 18 0 -3
BITMAP
0000
0000
0000
0000
0000
0000
0000
4000
3f00
0000
0000
0000
0000
0000
0000
0000
0000
0000
ENDCHAR
STARTCHAR KanaA
ENCODING 177
SWIDTH 480 0
DWIDTH 9 0
BBX 9 18 0 -3
BITMAP
0000
0000
0000
8f00
7100
0100
0a00
0c00
0800
0800
0800
1000
1000
1000
2000
4000
0000
0000
ENDCHAR
STARTCHAR KanaI
ENCODING 178
SWIDTH 480 0
DWIDTH 9 0
BBX 9 18 0 -3
BITMAP
0000
0000
0100
0100
0200
0200
0400
0800
1400
2400
4400
0400
0400
0400
0400
0400
0000
0000
ENDCHAR
STARTCHAR KanaU
ENCODING 179
SWIDTH 480 0
DWIDTH 9 0
BBX 9 18 0 -3
BITMAP
0000
0800
0800
0800
0f00
7100
4100
4100
4100
0200
0200
0200
0400
0400
0800
1000
0000
0000
ENDCHAR
STARTCHAR KanaE
ENCODING 180
SWIDTH 480 0
DWIDTH 9 0
BBX 9 18 0 -3
BITMAP
0000
0000
0000
4700
3800
0800
0800
0800
0800
0800
0800
0800
8f00
7000
0000
0000
0000
0000
ENDCHAR
STARTCHAR KanaO
ENCODING 181
SWIDTH 480 0
DWIDTH 9 0
BBX 9 18 0 -3
BITMAP
0000
0400
0400
0400
8f00
7400
0400
0c00
0c00
1400
1400
2400
2400
4400
8c00
0400
0000
0000
ENDCHAR
STARTCHAR KanaKA
ENCODING 182
SWIDTH 480 0
DWIDTH 9 0
BBX 9 18 0 -3
BITMAP
0000
1000
1000
1000
1000
9700
7900
1100
1100
2100
2100
2100
4100
4a00
8600
8200
0000
0000
ENDCHAR
STARTCHAR KanaKI
ENCODING 183
SWIDTH 480 0
DWIDTH 9 0
BBX 9 18 0 -3
BITMAP
0000
1000
1000
1000
9f00
7000
0800
0800
0800
8f00
7800
0800
0400
0400
0400
0400
0400
0000
ENDCHAR
STARTCHAR KanaKU
ENCODING 184
SWIDTH 480 0
DWIDTH 9 0
BBX 9 18 0 -3
BITMAP
0000
0000
1000
1000
1f00
1100
2100
2100
4200
4200
0200
0400
0400
0800
1000
2000
4000
0000
ENDCHAR
STARTCHAR KanaKE
ENCODING 185
SWIDTH 480 0
DWIDTH 9 0
BBX 9 18 0 -3
BITMAP
0000
0000
2000
2000
2000
3f00
2400
2400
4400
4400
8400
0800
0800
1000
1000
2000
4000
0000
ENDCHAR
STARTCHAR KanaKO
ENCODING 186
SWIDTH 480 0
DWIDTH 9 0
BBX 9 18 0 -3
BITMAP
0000
0000
0000
0000
4700
3900
0100
0100
0100
0100
0100
0100
0100
4700
3900
0000
0000
0000
ENDCHAR
STARTCHAR KanaSA
ENCODING 187
SWIDTH 480 0
DWIDTH 9 0
BBX 9 18 0 -3
BITMAP
0000
0000
0200
2200
2200
2200
a700
7a00
2200
2200
2200
2400
0400
0400
0800
0800
1000
0000
ENDCHAR
STARTCHAR KanaSI
ENCODING 188
SWIDTH 480 0
DWIDTH 9 0
BBX 9 18 0 -3
BITMAP
0000
0000
4000
2100
1100
0100
8100
4200
2200
0200
0400
0400
0800
0800
1000
6000
0000
0000
ENDCHAR
STARTCHAR KanaSU
ENCODING 189
SWIDTH 480 0
DWIDTH 9 0
BBX 9 18 0 -3
BITMAP
0000
0000
0000
4e00
3200
0200
0400
0400
0400
0800
0c00
1400
1200
2200
4100
8100
0000
0000
ENDCHAR
STARTCHAR KanaSE
ENCODING 190
SWIDTH 480 0
DWIDTH 9 0
BBX 9 18 0 -3
BITMAP
0000
4000
2000
2000
2000
2700
3900
e100
2200
2200
2400
2800
2000
2000
2000
1f00
0000
0000
ENDCHAR
STARTCHAR KanaSO
ENCODING 191
SWIDTH 480 0
DWIDTH 9 0
BBX 9 18 0 -3
BITMAP
0000
0000
0100
4100
2100
2100
1100
1100
0100
0200
0200
0200
0400
0400
0800
1000
2000
0000
ENDCHAR
STARTCHAR KanaTA
ENCODING 192
SWIDTH 480 0
DWIDTH 9 0
BBX 9 18 0 -3
BITMAP
0000
0000
1000
1000
1f00
1100
2100
2100
5200
8a00
0400
0600
0800
0800
1000
2000
4000
0000
ENDCHAR
STARTCHAR KanaTI
ENCODING 193
SWIDTH 480 0
DWIDTH 9 0
BBX 9 18 0 -3
BITMAP
0000
0000
0600
1800
6800
0800
0800
8f00
7800
0800
0800
0800
1000
1000
2000
4000
0000
0000
ENDCHAR
STARTCHAR KanaTU
ENCODING 194
SWIDTH 480 0
DWIDTH 9 0
BBX 9 18 0 -3
BITMAP
0000
0000
0100
1100
9100
8900
4900
4100
0200
0200
0200
0400
0400
0800
1000
2000
0000
0000
ENDCHAR
STARTCHAR KanaTE
ENCODING 195
SWIDTH 480 0
DWIDTH 9 0
BBX 9 18 0 -3
BITMAP
0000
0000
0000
4600
3800
0000
0000
8f00
7800
0800
0800
0800
1000
1000
2000
4000
0000
0000
ENDCHAR
STARTCHAR KanaTO
ENCODING 196
SWIDTH 480 0
DWIDTH 9 0
BBX 9 18 0 -3
BITMAP
0000
2000
2000
2000
2000
2000
3000
2800
2400
2200
2200
2000
2000
2000
2000
2000
0000
0000
ENDCHAR
STARTCHAR KanaNA
ENCODING 197
SWIDTH 480 0
DWIDTH 9 0
BBX 9 18 0 -3
BITMAP
0000
0000
0800
0800
0800
0800
8f00
7800
0800
0800
0800
1000
1000
1000
2000
4000
0000
0000
ENDCHAR
STARTCHAR KanaNI
ENCODING 198
SWIDTH 480 0
DWIDTH 9 0
BBX 9 18 0 -3
BITMAP
0000
0000
0000
0000
4e00
3000
0000
0000
0000
0000
0000
0000
8f00
7000
0000
0000
0000
0000
ENDCHAR
STARTCHAR KanaNU
ENCODING 199
SWIDTH 480 0
DWIDTH 9 0
BBX 9 18 0 -3
BITMAP
0000
0000
0000
4700
3900
0100
0200
2200
1400
0c00
0800
1400
1200
2200
4000
8000
0000
0000
ENDCHAR
STARTCHAR KanaNE
ENCODING 200
SWIDTH 480 0
DWIDTH 9 0
BBX 9 18 0 -3
BITMAP
0000
0000
1000
0800
0800
4700
3900
0200
0200
0400
0a00
1900
2900
c800
0800
0800
0800
0000
ENDCHAR
STARTCHAR KanaNO
ENCODING 201
SWIDTH 480 0
DWIDTH 9 0
BBX 9 18 0 -3
BITMAP
0000
0000
0000
0100
0100
0100
0100
0200
0200
0200
0400
0400
0800
0800
1000
2000
4000
0000
ENDCHAR
STARTCHAR KanaHA
ENCODING 202
SWIDTH 480 0
DWIDTH 9 0
BBX 9 18 0 -3
BITMAP
0000
0000
0000
0400
2400
2200
2200
2200
2200
4100
4100
4100
4100
8100
8000
0000
0000
0000
ENDCHAR
STARTCHAR KanaHI
ENCODING 203
SWIDTH 480 0
DWIDTH 9 0
BBX 9 18 0 -3
BITMAP
0000
0000
8000
4000
4000
4200
4200
4c00
7000
4000
4000
4000
4000
4000
3f00
0000
0000
0000
ENDCHAR
STARTCHAR KanaHU
ENCODING 204
SWIDTH 480 0
DWIDTH 9 0
BBX 9 18 0 -3
BITMAP
0000
0000
0000
8f00
7100
0100
0100
0200
0200
0200
0400
0400
0800
1000
2000
4000
0000
0000
ENDCHAR
STARTCHAR KanaHE
ENCODING 205
SWIDTH 480 0
DWIDTH 9 0
BBX 9 18 0 -3
BITMAP
0000
0000
0000
0000
1000
1000
2800
2800
4400
8400
8200
0200
0100
0100
0000
0000
0000
0000
ENDCHAR
STARTCHAR KanaHO
ENCODING 206
SWIDTH 480 0
DWIDTH 9 0
BBX 9 18 0 -3
BITMAP
0000
0800
0800
0800
8f00
7800
0800
0800
2a00
2a00
4900
4900
8900
2800
1800
0800
0000
0000
ENDCHAR
STARTCHAR KanaMA
ENCODING 207
SWIDTH 480 0
DWIDTH 9 0
BBX 9 18 0 -3
BITMAP
0000
0000
0000
0000
8f00
7100
0200
0200
0400
2400
1800
0800
0800
0400
0400
0000
0000
0000
ENDCHAR
STARTCHAR KanaMI
ENCODING 208
SWIDTH 480 0
DWIDTH 9 0
BBX 9 18 0 -3
BITMAP
0000
3000
0c00
0200
0000
0000
3000
0c00
0200
0000
0000
6000
1800
0400
0200
0100
0000
0000
ENDCHAR
STARTCHAR KanaMU
ENCODING 209
SWIDTH 480 0
DWIDTH 9 0
BBX 9 18 0 -3
BITMAP
0000
0000
0800
0800
0800
0800
1000
1000
1000
1200
2200
2200
2100
4f00
f100
0100
0000
0000
ENDCHAR
STARTCHAR KanaME
ENCODING 210
SWIDTH 480 0
DWIDTH 9 0
BBX 9 18 0 -3
BITMAP
0000
0000
0100
0100
0100
0100
3200
0a00
0600
0200
0600
0500
0900
0900
1000
2000
4000
0000
ENDCHAR
STARTCHAR KanaMO
ENCODING 211
SWIDTH 480 0
DWIDTH 9 0
BBX 9 18 0 -3
BITMAP
0000
0000
0000
4e00
3000
1000
1000
1000
9700
7800
1000
1000
1000
1000
1000
0f00
0000
0000
ENDCHAR
STARTCHAR KanaYA
ENCODING 212
SWIDTH 480 0
DWIDTH 9 0
BBX 9 18 0 -3
BITMAP
0000
1000
1000
1000
1300
9d00
7100
1200
1200
1400
1000
0800
0800
0800
0800
0800
0800
0000
ENDCHAR
STARTCHAR KanaYU
ENCODING 213
SWIDTH 480 0
DWIDTH 9 0
BBX 9 18 0 -3
BITMAP
0000
0000
0000
0000
4c00
3400
0400
0400
0400
0400
0400
0400
8f00
7000
0000
0000
0000
0000
ENDCHAR
STARTCHAR KanaYO
ENCODING 214
SWIDTH 480 0
DWIDTH 9 0
BBX 9 18 0 -3
BITMAP
0000
0000
0000
8f00
7100
0100
0100
0100
4700
3900
0100
0100
0100
8f00
7100
0000
0000
0000
ENDCHAR
STARTCHAR KanaRA
ENCODING 215
SWIDTH 480 0
DWIDTH 9 0
BBX 9 18 0 -3
BITMAP
0000
0000
4e00
3000
0000
0000
8f00
7100
0100
0100
0200
0200
0400
0400
0800
1000
6000
0000
ENDCHAR
STARTCHAR KanaRI
ENCODING 216
SWIDTH 480 0
DWIDTH 9 0
BBX 9 18 0 -3
BITMAP
0000
0200
2100
2100
2100
2100
2100
2100
2100
2100
0200
0200
0200
0400
0400
0800
1000
0000
ENDCHAR
STARTCHAR KanaRU
ENCODING 217
SWIDTH 480 0
DWIDTH 9 0
BBX 9 18 0 -3
BITMAP
0000
0000
0400
2400
2400
2400
2400
2400
2500
2500
2500
2500
4600
4600
4400
8400
0000
0000
ENDCHAR
STARTCHAR KanaRE
ENCODING 218
SWIDTH 480 0
DWIDTH 9 0
BBX 9 18 0 -3
BITMAP
0000
0000
4000
2000
2000
2000
2000
2100
2100
2100
2200
2200
2400
2800
3000
2000
0000
0000
ENDCHAR
STARTCHAR KanaRO
ENCODING 219
SWIDTH 480 0
DWIDTH 9 0
BBX 9 18 0 -3
BITMAP
0000
0000
0000
0000
4f00
7100
4100
4100
4100
4100
4100
4100
4f00
7100
4000
0000
0000
0000
ENDCHAR
STARTCHAR KanaWA
ENCODING 220
SWIDTH 480 0
DWIDTH 9 0
BBX 9 18 0 -3
BITMAP
0000
0000
0000
4f00
7100
4100
4100
4100
4200
0200
0200
0400
0400
0800
1000
2000
0000
0000
ENDCHAR
STARTCHAR KanaN
ENCODING 221
SWIDTH 480 0
DWIDTH 9 0
BBX 9 18 0 -3
BITMAP
0000
0000
0000
c000
3100
0100
0100
0100
0200
0200
0400
0400
0800
1000
2000
c000
0000
0000
ENDCHAR
STARTCHAR dakuten
ENCODING 222
SWIDTH 480 0
DWIDTH 9 0
BBX 9 18 0 -3
BITMAP
0000
2000
9000
4800
2000
0000
0000
0000
0000
0000
0000
0000
0000
0000
0000
0000
0000
0000
ENDCHAR
STARTCHAR handakuten
ENCODING 223
SWIDTH 480 0
DWIDTH 9 0
BBX 9 18 0 -3
BITMAP
0000
3800
4400
4400
4400
3800
0000
0000
0000
0000
0000
0000
0000
0000
0000
0000
0000
0000
ENDCHAR
ENDFONT
